<?xml version="1.0" encoding="UTF-8" standalone="no"?>
<!-- Created with Inkscape (http://www.inkscape.org/) -->

<svg
   version="1.1"
   id="svg5600"
   width="24.000004"
   height="24.000158"
   viewBox="0 0 24.000004 24.000157"
   sodipodi:docname="email_white.svg"
   inkscape:version="1.2.2 (b0a8486541, 2022-12-01)"
   xml:space="preserve"
   xmlns:inkscape="http://www.inkscape.org/namespaces/inkscape"
   xmlns:sodipodi="http://sodipodi.sourceforge.net/DTD/sodipodi-0.dtd"
   xmlns="http://www.w3.org/2000/svg"
   xmlns:svg="http://www.w3.org/2000/svg"><defs
     id="defs5604" /><sodipodi:namedview
     id="namedview5602"
     pagecolor="#505050"
     bordercolor="#ffffff"
     borderopacity="1"
     inkscape:showpageshadow="0"
     inkscape:pageopacity="0"
     inkscape:pagecheckerboard="1"
     inkscape:deskcolor="#505050"
     showgrid="false"
     inkscape:zoom="9.6351758"
     inkscape:cx="24.597372"
     inkscape:cy="20.445916"
     inkscape:window-width="1920"
     inkscape:window-height="1011"
     inkscape:window-x="0"
     inkscape:window-y="0"
     inkscape:window-maximized="1"
     inkscape:current-layer="g5606" /><g
     inkscape:groupmode="layer"
     inkscape:label="Image"
     id="g5606"
     transform="translate(1144.645,-2177.4099)"><path
       style="fill:#ffffff;stroke-width:0.024012"
       d="m -1133.4374,2201.3783 c -0.543,-0.04 -0.8205,-0.072 -1.2486,-0.1458 -2.1747,-0.3746 -4.1239,-1.2996 -5.8334,-2.7683 -0.3391,-0.2914 -1.0227,-0.9835 -1.2949,-1.311 -1.1481,-1.3818 -1.9354,-2.8769 -2.4023,-4.5623 -0.32,-1.1554 -0.4786,-2.568 -0.4143,-3.6918 0.059,-1.0342 0.1843,-1.8408 0.4143,-2.6714 0.6971,-2.5163 2.155,-4.6897 4.2374,-6.3171 1.0248,-0.8009 2.3357,-1.4959 3.5883,-1.9023 1.0747,-0.3487 1.986,-0.5134 3.2356,-0.5849 0.7505,-0.043 1.7086,0.018 2.5513,0.1629 2.1317,0.3659 4.0807,1.2805 5.7614,2.7036 0.3093,0.2619 0.9825,0.9312 1.2528,1.2456 1.2031,1.3993 2.0326,2.9461 2.5164,4.6922 0.32,1.1554 0.4786,2.568 0.4143,3.6919 -0.099,1.734 -0.4406,3.1333 -1.1147,4.5683 -0.8194,1.7443 -1.9987,3.2179 -3.5377,4.4207 -0.3369,0.2633 -0.989,0.6978 -1.4025,0.9346 -1.3861,0.7937 -3.0034,1.3177 -4.5863,1.486 -0.8436,0.09 -1.4053,0.1026 -2.1371,0.049 z m 8.9685,-7.0317 c 0.1353,-0.064 0.2237,-0.1502 0.2977,-0.2906 l 0.051,-0.096 v -4.0284 c 0,-2.2156 -0.01,-4.0283 -0.016,-4.0283 -0.019,0 -0.064,0.026 -1.7013,0.9845 -0.4358,0.2552 -0.8518,0.4984 -0.9244,0.5404 -0.073,0.042 -0.2239,0.13 -0.3362,0.1956 -0.1123,0.066 -0.35,0.2041 -0.5283,0.3077 -0.1783,0.1037 -0.4571,0.2679 -0.6197,0.3648 -0.1625,0.097 -0.2992,0.1762 -0.3037,0.1762 0,0 -0.082,0.045 -0.1727,0.1 -0.091,0.055 -0.2915,0.1739 -0.4466,0.2642 -0.6988,0.4065 -0.8805,0.5126 -1.4108,0.8238 -0.3103,0.1822 -0.6021,0.3527 -0.6483,0.3788 -0.046,0.026 -0.1759,0.102 -0.2881,0.1684 -0.1123,0.066 -0.2365,0.1393 -0.2762,0.1622 -0.04,0.023 -0.1693,0.099 -0.2881,0.1694 -0.3767,0.2229 -0.5038,0.2816 -0.5889,0.2717 -0.1009,-0.012 -0.1132,-0.018 -0.6357,-0.3263 -0.2759,-0.1627 -0.766,-0.4493 -1.2967,-0.7583 -0.1717,-0.1 -0.4904,-0.2865 -0.7083,-0.4145 -0.2179,-0.128 -0.5259,-0.3086 -0.6844,-0.4013 -0.1585,-0.093 -0.6663,-0.3897 -1.1286,-0.6601 -0.9189,-0.5374 -1.8614,-1.0878 -2.2931,-1.339 -0.1519,-0.088 -0.3734,-0.2177 -0.4923,-0.2874 -0.1188,-0.07 -0.2485,-0.1456 -0.2881,-0.1686 -0.04,-0.023 -0.2681,-0.1567 -0.5077,-0.297 -0.2397,-0.1404 -0.4478,-0.2552 -0.4626,-0.2552 -0.02,0 -0.025,1.0663 -0.021,4.016 0.01,3.8562 0.01,4.0201 0.051,4.1182 0.053,0.1204 0.2422,0.2993 0.3556,0.3356 0.056,0.018 2.5103,0.026 8.136,0.028 h 8.0561 l 0.12,-0.057 z m -7.534,-4.7853 c 0.7065,-0.4136 1.0475,-0.6127 1.483,-0.8657 0.1585,-0.092 0.4448,-0.2597 0.6363,-0.3725 0.1915,-0.1127 0.6399,-0.3753 0.9965,-0.5836 0.6408,-0.3741 1.2154,-0.7114 1.7289,-1.0146 0.1452,-0.086 0.3123,-0.183 0.3712,-0.2161 0.059,-0.033 0.2035,-0.118 0.3213,-0.1886 0.1177,-0.071 0.2183,-0.1285 0.2234,-0.1285 0.01,0 0.087,-0.047 0.183,-0.1042 0.096,-0.057 0.3088,-0.1833 0.4739,-0.28 0.165,-0.097 0.3758,-0.2207 0.4682,-0.2755 0.5871,-0.3483 0.8502,-0.4936 0.9186,-0.5073 0.067,-0.014 0.078,-0.025 0.078,-0.089 0,-0.1648 -0.1651,-0.3902 -0.3482,-0.4752 -0.093,-0.043 -0.3561,-0.045 -8.1881,-0.045 l -8.0921,-4e-4 -0.126,0.072 c -0.072,0.041 -0.1533,0.1136 -0.1901,0.1692 -0.062,0.093 -0.1324,0.3051 -0.1129,0.3385 0.01,0.01 0.044,0.024 0.087,0.032 0.043,0.01 0.1156,0.038 0.1618,0.065 0.046,0.027 0.3704,0.2169 0.7204,0.4216 0.35,0.2047 0.7282,0.4262 0.8404,0.4922 0.1123,0.066 0.3338,0.1953 0.4923,0.2875 0.3557,0.2068 0.381,0.2215 0.6483,0.3776 0.1189,0.07 0.2485,0.1449 0.2881,0.1678 0.04,0.023 0.1909,0.1117 0.3362,0.1975 0.5604,0.3309 0.9639,0.5677 1.0445,0.6129 0.046,0.026 0.1958,0.1136 0.3324,0.1948 0.1366,0.081 0.2532,0.1477 0.2591,0.1477 0.01,0 0.04,0.02 0.076,0.045 0.036,0.025 0.2056,0.1262 0.3773,0.2258 0.1716,0.1 0.5282,0.3076 0.7924,0.4622 0.5543,0.3245 0.7949,0.4652 1.2126,0.709 0.1651,0.096 0.4244,0.2491 0.5763,0.3392 0.1518,0.09 0.2787,0.164 0.2819,0.164 0,0 0.2949,-0.1692 0.6483,-0.3762 z"
       id="path7959" /><path
       style="fill:#000000"
       id="path7957"
       d="" /></g></svg>
