<?xml version="1.0" encoding="UTF-8" standalone="no"?>
<!-- Created with Inkscape (http://www.inkscape.org/) -->

<svg
   version="1.1"
   id="svg2"
   width="32.04147"
   height="32"
   viewBox="0 0 32.04147 32"
   sodipodi:docname="whatsapp.svg"
   inkscape:version="1.2.2 (b0a8486541, 2022-12-01)"
   xmlns:inkscape="http://www.inkscape.org/namespaces/inkscape"
   xmlns:sodipodi="http://sodipodi.sourceforge.net/DTD/sodipodi-0.dtd"
   xmlns="http://www.w3.org/2000/svg"
   xmlns:svg="http://www.w3.org/2000/svg">
  <defs
     id="defs6" />
  <sodipodi:namedview
     id="namedview4"
     pagecolor="#505050"
     bordercolor="#ffffff"
     borderopacity="1"
     inkscape:showpageshadow="0"
     inkscape:pageopacity="0"
     inkscape:pagecheckerboard="1"
     inkscape:deskcolor="#505050"
     showgrid="false"
     inkscape:zoom="0.7890625"
     inkscape:cx="661.54455"
     inkscape:cy="503.12871"
     inkscape:window-width="1920"
     inkscape:window-height="1011"
     inkscape:window-x="0"
     inkscape:window-y="0"
     inkscape:window-maximized="1"
     inkscape:current-layer="g8" />
  <g
     inkscape:groupmode="layer"
     inkscape:label="Image"
     id="g8"
     transform="translate(153.23309,-9.0204612)">
    <path
       style="fill:#ffffff;stroke-width:0.0339438"
       d="m -150.45526,32.765299 -0.4536,-0.925203 c -0.97754,-1.993888 -1.47026,-3.604823 -1.7001,-5.558539 -0.0738,-0.627232 -0.1011,-2.091828 -0.0513,-2.749451 0.46017,-6.073003 4.28507,-11.247702 9.94826,-13.459007 1.22937,-0.4800288 2.6949,-0.8489452 3.90355,-0.9826334 0.90483,-0.1000839 2.87433,-0.091549 3.97989,0.017248 1.15996,0.1141483 2.9092,0.6025808 4.25149,1.1871214 3.34188,1.455326 6.12355,4.101968 7.77075,7.39356 1.38862,2.774848 1.88451,5.809354 1.47638,9.034432 -0.5379,4.250633 -2.94631,8.160047 -6.59987,10.713136 -4.43733,3.100789 -10.13581,3.676654 -15.24043,1.540133 -0.18669,-0.07814 -0.58202,-0.256928 -0.87851,-0.397309 -0.53077,-0.251304 -0.54123,-0.254602 -0.67888,-0.213961 l -8.50546,2.655635 z m 14.97333,4.922097 c 2.62563,-0.320627 4.89678,-1.266604 6.91136,-2.87871 0.44975,-0.359891 1.27422,-1.158144 1.6741,-1.620864 1.72913,-2.000826 2.77917,-4.346334 3.1146,-6.95718 0.0943,-0.733683 0.0862,-2.518028 -0.0147,-3.25861 -0.34245,-2.513759 -1.23128,-4.594158 -2.80617,-6.568134 -0.44525,-0.558084 -1.44858,-1.558164 -2.02257,-2.016018 -2.40321,-1.916979 -5.24479,-2.90584 -8.35019,-2.90584 -3.01001,0 -5.86381,1.00592 -8.24992,2.907969 -0.54993,0.438368 -1.53361,1.41105 -1.96187,1.939937 -1.66399,2.054981 -2.65514,4.456904 -2.92994,7.100328 -0.0608,0.585285 -0.0513,1.955095 0.0178,2.545789 0.11664,0.997893 0.32092,1.922583 0.61116,2.766423 0.34853,1.013321 1.06405,2.446134 1.66119,3.326497 l 0.18419,0.271551 -1.60644,4.794217 4.65984,-1.416306 c 0.40193,-0.123529 0.28563,-0.154871 1.04591,0.281853 1.74588,1.002879 3.51023,1.547189 5.61771,1.733095 0.30379,0.0268 2.12917,-0.0076 2.44395,-0.046 z m 2.08755,-5.783008 c -1.07475,-0.230032 -2.83115,-0.851918 -3.86607,-1.368855 -2.00191,-0.999948 -3.9238,-2.764802 -5.57507,-5.119544 -1.1918,-1.699537 -1.70115,-2.858593 -1.76537,-4.017202 -0.0277,-0.499175 0.061,-1.24749 0.19567,-1.65142 0.24327,-0.729616 0.84873,-1.623839 1.32886,-1.962622 0.36725,-0.25913 0.45091,-0.277672 1.2529,-0.277672 0.80715,0 0.80828,3.6e-4 1.00123,0.31933 0.27339,0.451954 1.50465,3.391715 1.50465,3.592516 0,0.185076 -0.38437,0.767438 -1.03574,1.569248 -0.083,0.10222 -0.18486,0.249714 -0.22626,0.327766 l -0.0753,0.141912 0.1241,0.251088 c 0.4734,0.957862 1.74744,2.400044 2.90552,3.288991 0.73762,0.56619 2.3999,1.422096 2.76191,1.422096 0.0761,0 0.16503,-0.03434 0.25037,-0.09664 0.18717,-0.136637 0.58142,-0.559593 1.00155,-1.074487 0.198,-0.242663 0.4453,-0.521397 0.54955,-0.61941 0.16398,-0.154157 0.20802,-0.178205 0.32639,-0.178205 0,0 3.67849,1.723802 3.73683,1.784611 0.0634,0.123648 0.0661,0.750413 0.005,1.0497 -0.19169,0.931367 -0.5167,1.421925 -1.26044,1.902453 -1.01898,0.658358 -2.17668,0.922487 -3.13981,0.716347 z"
       id="path293"
       sodipodi:nodetypes="csssssssssssscccsssssssssssssscccsssssssssssssscssssssccsss" />
  </g>
</svg>
